<?xml version="1.0" encoding="utf-8"?><!-- Uploaded to: SVG Repo, www.svgrepo.com, Generator: SVG Repo Mixer Tools -->
<svg fill="#000000" width="800px" height="800px" viewBox="0 0 24 24" id="date-alt-calender" data-name="Flat Color" xmlns="http://www.w3.org/2000/svg" class="icon flat-color"><rect id="secondary" x="2" y="3" width="20" height="17" rx="2" style="fill: rgb(44, 169, 188);"></rect><circle id="primary" cx="12" cy="15" r="7" style="fill: rgb(0, 0, 0);"></circle><path id="primary-2" data-name="primary" d="M20,3H4A2,2,0,0,0,2,5V9H22V5A2,2,0,0,0,20,3Z" style="fill: rgb(0, 0, 0);"></path><path id="secondary-2" data-name="secondary" d="M16,6a1,1,0,0,1-1-1V3a1,1,0,0,1,2,0V5A1,1,0,0,1,16,6ZM9,5V3A1,1,0,0,0,7,3V5A1,1,0,0,0,9,5Zm1.5,12V13a1,1,0,0,0-2,0v4a1,1,0,0,0,2,0Zm4,.24,1-4a1,1,0,0,0-.18-.86A1,1,0,0,0,14.5,12h-2a1,1,0,0,0,0,2h.72l-.69,2.76A1,1,0,0,0,13.26,18a1,1,0,0,0,1.21-.73Z" style="fill: rgb(44, 169, 188);"></path></svg>